<svg version="1.1" id="mscgenjs__svg" class="mscgenjs__svg" xmlns="http://www.w3.org/2000/svg" xmlns:xlink="http://www.w3.org/1999/xlink" width="656" height="491" viewBox="0 0 656 491"><desc>

# Generated by mscgen_js - https://sverweij.github.io/mscgen_js
msc {
  c [label="Client"],
  p1 [label="First path node"],
  pn [label="n'th path node"],
  a [label="Announce node"];

  c -&gt; p1 [label="AnnounceRequest\n(no ping_id)"];
  p1 -&gt; c [label="AnnounceResponse"];
  c box c [label="Add the node to the announce list"];
  c box c [label="Send\nAnnounceRequest to “good” nodes from the response"];
  c -&gt; pn [label="AnnounceRequest\n(no ping_id)"];
  pn -&gt; c [label="AnnounceResponse"];
  ...;
  --- [label="On the next iteration of do_announce()"];
  c -&gt; a [label="AnnounceRequest"];
  a -&gt; c [label="AnnounceResponse"];
}
</desc><defs><style type="text/css">svg.mscgenjs__svg{font-family:Helvetica,sans-serif;font-size:12px;font-weight:normal;font-style:normal;text-decoration:none;background-color:white;stroke:black;stroke-width:2}.mscgenjs__svg path, .mscgenjs__svg rect{fill:none}.mscgenjs__svg .label-text-background{fill:white;stroke:white;stroke-width:0}.mscgenjs__svg .bglayer{fill:white;stroke:white;stroke-width:0}.mscgenjs__svg line{}.mscgenjs__svg .return, .mscgenjs__svg .comment{stroke-dasharray:5,3}.mscgenjs__svg .inline_expression_divider{stroke-dasharray:10,5}.mscgenjs__svg text{color:inherit;stroke:none;text-anchor:middle}.mscgenjs__svg text.anchor-start{text-anchor:start}.mscgenjs__svg .arrow-marker{overflow:visible}.mscgenjs__svg .arrow-style{stroke-width:1}.mscgenjs__svg .arcrow, .mscgenjs__svg .arcrowomit, .mscgenjs__svg .emphasised{stroke-linecap:butt}.mscgenjs__svg .arcrowomit{stroke-dasharray:2,2}.mscgenjs__svg .box, .mscgenjs__svg .entity{fill:white;stroke-linejoin:round}.mscgenjs__svg .inherit{stroke:inherit;color:inherit}.mscgenjs__svg .inherit-fill{fill:inherit}.mscgenjs__svg .watermark{font-size:48pt;font-weight:bold;opacity:0.14}.mscgenjs__svg text.entity-text{text-decoration:none}.mscgenjs__svg .entity{stroke:none;}.mscgenjs__svg line,.mscgenjs__svg rect,.mscgenjs__svg path{stroke-width:1px}.mscgenjs__svg .arrow-style{stroke-width:2;}.mscgenjs__svg .inline_expression,.mscgenjs__svg .inline_expression_divider,.mscgenjs__svg .inline_expression_label{stroke-width: 1px}</style><marker orient="auto" id="mscgenjs__svgsignal-black" class="arrow-marker" viewBox="0 0 10 10" refX="9" refY="3" markerUnits="strokeWidth" markerWidth="10" markerHeight="10"><path d="M9,3 l-8, 2" class="arrow-style" style="stroke-dasharray:100,1;stroke:black"></path></marker><marker orient="auto" id="mscgenjs__svgsignal-u-black" class="arrow-marker" viewBox="0 0 10 10" refX="9" refY="3" markerUnits="strokeWidth" markerWidth="10" markerHeight="10"><path d="M9,3 l-8,-2" class="arrow-style" style="stroke-dasharray:100,1;stroke:black"></path></marker><marker orient="auto" id="mscgenjs__svgsignal-l-black" class="arrow-marker" viewBox="0 0 10 10" refX="9" refY="3" markerUnits="strokeWidth" markerWidth="10" markerHeight="10"><path d="M9,3 l 8, 2" class="arrow-style" style="stroke-dasharray:100,1;stroke:black"></path></marker><marker orient="auto" id="mscgenjs__svgsignal-lu-black" class="arrow-marker" viewBox="0 0 10 10" refX="9" refY="3" markerUnits="strokeWidth" markerWidth="10" markerHeight="10"><path d="M9,3 l 8,-2" class="arrow-style" style="stroke-dasharray:100,1;stroke:black"></path></marker></defs><g id="mscgenjs__svg_body" transform="translate(38,3) scale(1,1)"><g id="mscgenjs__svg_background"><rect width="656" height="491" x="-38" y="-3" class="bglayer"></rect></g><g id="mscgenjs__svg_arcspans"></g><g id="mscgenjs__svg_lifelines"><line x1="50" y1="38" x2="50" y2="76" class="arcrow"></line><line x1="210" y1="38" x2="210" y2="76" class="arcrow"></line><line x1="370" y1="38" x2="370" y2="76" class="arcrow"></line><line x1="530" y1="38" x2="530" y2="76" class="arcrow"></line><line x1="50" y1="76" x2="50" y2="114" class="arcrow"></line><line x1="210" y1="76" x2="210" y2="114" class="arcrow"></line><line x1="370" y1="76" x2="370" y2="114" class="arcrow"></line><line x1="530" y1="76" x2="530" y2="114" class="arcrow"></line><line x1="50" y1="114" x2="50" y2="152" class="arcrow"></line><line x1="210" y1="114" x2="210" y2="152" class="arcrow"></line><line x1="370" y1="114" x2="370" y2="152" class="arcrow"></line><line x1="530" y1="114" x2="530" y2="152" class="arcrow"></line><line x1="50" y1="152" x2="50" y2="190" class="arcrow"></line><line x1="210" y1="152" x2="210" y2="190" class="arcrow"></line><line x1="370" y1="152" x2="370" y2="190" class="arcrow"></line><line x1="530" y1="152" x2="530" y2="190" class="arcrow"></line><line x1="50" y1="190" x2="50" y2="257" class="arcrow"></line><line x1="210" y1="190" x2="210" y2="257" class="arcrow"></line><line x1="370" y1="190" x2="370" y2="257" class="arcrow"></line><line x1="530" y1="190" x2="530" y2="257" class="arcrow"></line><line x1="50" y1="257" x2="50" y2="295" class="arcrow"></line><line x1="210" y1="257" x2="210" y2="295" class="arcrow"></line><line x1="370" y1="257" x2="370" y2="295" class="arcrow"></line><line x1="530" y1="257" x2="530" y2="295" class="arcrow"></line><line x1="50" y1="295" x2="50" y2="333" class="arcrow"></line><line x1="210" y1="295" x2="210" y2="333" class="arcrow"></line><line x1="370" y1="295" x2="370" y2="333" class="arcrow"></line><line x1="530" y1="295" x2="530" y2="333" class="arcrow"></line><line x1="50" y1="333" x2="50" y2="371" class="arcrowomit"></line><line x1="210" y1="333" x2="210" y2="371" class="arcrowomit"></line><line x1="370" y1="333" x2="370" y2="371" class="arcrowomit"></line><line x1="530" y1="333" x2="530" y2="371" class="arcrowomit"></line><line x1="50" y1="371" x2="50" y2="409" class="arcrow"></line><line x1="210" y1="371" x2="210" y2="409" class="arcrow"></line><line x1="370" y1="371" x2="370" y2="409" class="arcrow"></line><line x1="530" y1="371" x2="530" y2="409" class="arcrow"></line><line x1="50" y1="409" x2="50" y2="447" class="arcrow"></line><line x1="210" y1="409" x2="210" y2="447" class="arcrow"></line><line x1="370" y1="409" x2="370" y2="447" class="arcrow"></line><line x1="530" y1="409" x2="530" y2="447" class="arcrow"></line><line x1="50" y1="447" x2="50" y2="485" class="arcrow"></line><line x1="210" y1="447" x2="210" y2="485" class="arcrow"></line><line x1="370" y1="447" x2="370" y2="485" class="arcrow"></line><line x1="530" y1="447" x2="530" y2="485" class="arcrow"></line></g><g id="mscgenjs__svg_sequence"><g><g><rect width="100" height="38" class="entity"></rect><g><text x="50" y="22.5" class="entity-text "><tspan>Client</tspan></text></g></g><g><rect width="100" height="38" x="160" class="entity"></rect><g><text x="210" y="15" class="entity-text "><tspan>First path</tspan></text><text x="210" y="30" class="entity-text "><tspan>node</tspan></text></g></g><g><rect width="100" height="38" x="320" class="entity"></rect><g><text x="370" y="15" class="entity-text "><tspan>n'th path</tspan></text><text x="370" y="30" class="entity-text "><tspan>node</tspan></text></g></g><g><rect width="100" height="38" x="480" class="entity"></rect><g><text x="530" y="22.5" class="entity-text "><tspan>Announce node</tspan></text></g></g></g><g><line x1="50" y1="95" x2="210" y2="95" class="arc directional signal" style="stroke:black" marker-end="url(#mscgenjs__svgsignal-black)"></line><g><rect width="102" height="14" x="79" y="79.5" class="label-text-background"></rect><text x="130" y="90.5" class="directional-text signal-text "><tspan>AnnounceRequest</tspan></text><rect width="66" height="14" x="97" y="96.5" class="label-text-background"></rect><text x="130" y="107.5" class="directional-text signal-text "><tspan>(no ping_id)</tspan></text></g></g><g><line x1="210" y1="133" x2="50" y2="133" class="arc directional signal" style="stroke:black" marker-end="url(#mscgenjs__svgsignal-u-black)"></line><g><rect width="112" height="14" x="74" y="117.5" class="label-text-background"></rect><text x="130" y="128.5" class="directional-text signal-text "><tspan>AnnounceResponse</tspan></text></g></g><g><line x1="50" y1="276" x2="370" y2="276" class="arc directional signal" style="stroke:black" marker-end="url(#mscgenjs__svgsignal-black)"></line><g><rect width="102" height="14" x="159" y="260.5" class="label-text-background"></rect><text x="210" y="271.5" class="directional-text signal-text "><tspan>AnnounceRequest</tspan></text><rect width="66" height="14" x="177" y="277.5" class="label-text-background"></rect><text x="210" y="288.5" class="directional-text signal-text "><tspan>(no ping_id)</tspan></text></g></g><g><line x1="370" y1="314" x2="50" y2="314" class="arc directional signal" style="stroke:black" marker-end="url(#mscgenjs__svgsignal-u-black)"></line><g><rect width="112" height="14" x="154" y="298.5" class="label-text-background"></rect><text x="210" y="309.5" class="directional-text signal-text "><tspan>AnnounceResponse</tspan></text></g></g><g></g><g><line x1="0" y1="390" x2="580" y2="390" class="comment"></line><g><rect width="209" height="14" x="185.5" y="382.5" class="label-text-background"></rect><text x="290" y="393.5" class="empty-text comment-row-text "><tspan>On the next iteration of do_announce()</tspan></text></g></g><g><line x1="50" y1="428" x2="530" y2="428" class="arc directional signal" style="stroke:black" marker-end="url(#mscgenjs__svgsignal-black)"></line><g><rect width="102" height="14" x="239" y="412.5" class="label-text-background"></rect><text x="290" y="423.5" class="directional-text signal-text "><tspan>AnnounceRequest</tspan></text></g></g><g><line x1="530" y1="466" x2="50" y2="466" class="arc directional signal" style="stroke:black" marker-end="url(#mscgenjs__svgsignal-u-black)"></line><g><rect width="112" height="14" x="234" y="450.5" class="label-text-background"></rect><text x="290" y="461.5" class="directional-text signal-text "><tspan>AnnounceResponse</tspan></text></g></g></g><g id="mscgenjs__svg_notes"><g><rect width="152" height="34" x="-26" y="154" class="box"></rect><g><text x="50" y="167" class="box-text "><tspan>Add the node to</tspan></text><text x="50" y="182" class="box-text "><tspan>the announce list</tspan></text></g></g><g><rect width="152" height="63" x="-26" y="192" class="box"></rect><g><text x="50" y="204.5" class="box-text "><tspan>Send</tspan></text><text x="50" y="219.5" class="box-text "><tspan>AnnounceRequest to</tspan></text><text x="50" y="234.5" class="box-text "><tspan>“good” nodes from</tspan></text><text x="50" y="249.5" class="box-text "><tspan>the response</tspan></text></g></g></g><g id="mscgenjs__svg_watermark"></g></g></svg>