<svg version="1.1" id="mscgenjs__svg" class="mscgenjs__svg" xmlns="http://www.w3.org/2000/svg" xmlns:xlink="http://www.w3.org/1999/xlink" width="656" height="500" viewBox="0 0 656 500"><desc>

# Generated by mscgen_js - https://sverweij.github.io/mscgen_js
msc {
    hscale="0.8";

    tx [ label="Sender", textcolor=white, textbgcolor=black ],
    n1 [ label="Node 1", linecolor=black ],
    n2 [ label="Node 2", linecolor=black ],
    n3 [ label="Node 3", linecolor=black ],
    rx [ label="Receiver", textcolor=white, textbgcolor=black ];

    |||;
    --- [ label="Request" ];

    tx -&gt; n1 [ label="OnionRequest0" ];
    n1 -&gt; n2 [ label="OnionRequest1" ];
    n2 -&gt; n3 [ label="OnionRequest2" ];
    n3 -&gt; rx [ label="(Request)" ];

    --- [ label="Response" ];

    rx -&gt; n3 [ label="OnionResponse3" ];
    n3 -&gt; n2 [ label="OnionResponse2" ];
    n2 -&gt; n1 [ label="OnionResponse1" ];
    n1 -&gt; tx [ label="(Response)" ];
}
</desc><defs><style type="text/css">svg.mscgenjs__svg{font-family:Helvetica,sans-serif;font-size:12px;font-weight:normal;font-style:normal;text-decoration:none;background-color:white;stroke:black;stroke-width:2}.mscgenjs__svg path, .mscgenjs__svg rect{fill:none}.mscgenjs__svg .label-text-background{fill:white;stroke:white;stroke-width:0}.mscgenjs__svg .bglayer{fill:white;stroke:white;stroke-width:0}.mscgenjs__svg line{}.mscgenjs__svg .return, .mscgenjs__svg .comment{stroke-dasharray:5,3}.mscgenjs__svg .inline_expression_divider{stroke-dasharray:10,5}.mscgenjs__svg text{color:inherit;stroke:none;text-anchor:middle}.mscgenjs__svg text.anchor-start{text-anchor:start}.mscgenjs__svg .arrow-marker{overflow:visible}.mscgenjs__svg .arrow-style{stroke-width:1}.mscgenjs__svg .arcrow, .mscgenjs__svg .arcrowomit, .mscgenjs__svg .emphasised{stroke-linecap:butt}.mscgenjs__svg .arcrowomit{stroke-dasharray:2,2}.mscgenjs__svg .box, .mscgenjs__svg .entity{fill:white;stroke-linejoin:round}.mscgenjs__svg .inherit{stroke:inherit;color:inherit}.mscgenjs__svg .inherit-fill{fill:inherit}.mscgenjs__svg .watermark{font-size:48pt;font-weight:bold;opacity:0.14}.mscgenjs__svg text.entity-text{text-decoration:none}.mscgenjs__svg .entity{stroke:none;}.mscgenjs__svg line,.mscgenjs__svg rect,.mscgenjs__svg path{stroke-width:1px}.mscgenjs__svg .arrow-style{stroke-width:2;}.mscgenjs__svg .inline_expression,.mscgenjs__svg .inline_expression_divider,.mscgenjs__svg .inline_expression_label{stroke-width: 1px}</style><marker orient="auto" id="mscgenjs__svgsignal-black" class="arrow-marker" viewBox="0 0 10 10" refX="9" refY="3" markerUnits="strokeWidth" markerWidth="10" markerHeight="10"><path d="M9,3 l-8, 2" class="arrow-style" style="stroke-dasharray:100,1;stroke:black"></path></marker><marker orient="auto" id="mscgenjs__svgsignal-u-black" class="arrow-marker" viewBox="0 0 10 10" refX="9" refY="3" markerUnits="strokeWidth" markerWidth="10" markerHeight="10"><path d="M9,3 l-8,-2" class="arrow-style" style="stroke-dasharray:100,1;stroke:black"></path></marker><marker orient="auto" id="mscgenjs__svgsignal-l-black" class="arrow-marker" viewBox="0 0 10 10" refX="9" refY="3" markerUnits="strokeWidth" markerWidth="10" markerHeight="10"><path d="M9,3 l 8, 2" class="arrow-style" style="stroke-dasharray:100,1;stroke:black"></path></marker><marker orient="auto" id="mscgenjs__svgsignal-lu-black" class="arrow-marker" viewBox="0 0 10 10" refX="9" refY="3" markerUnits="strokeWidth" markerWidth="10" markerHeight="10"><path d="M9,3 l 8,-2" class="arrow-style" style="stroke-dasharray:100,1;stroke:black"></path></marker></defs><g id="mscgenjs__svg_body" transform="translate(32,3) scale(1,1)"><g id="mscgenjs__svg_background"><rect width="656" height="500" x="-32" y="-3" class="bglayer"></rect></g><g id="mscgenjs__svg_arcspans"></g><g id="mscgenjs__svg_lifelines"><line x1="40" y1="38" x2="40" y2="76" class="arcrow"></line><line x1="168" y1="38" x2="168" y2="76" class="arcrow" style="stroke:black;"></line><line x1="296" y1="38" x2="296" y2="76" class="arcrow" style="stroke:black;"></line><line x1="424" y1="38" x2="424" y2="76" class="arcrow" style="stroke:black;"></line><line x1="552" y1="38" x2="552" y2="76" class="arcrow"></line><line x1="40" y1="76" x2="40" y2="114" class="arcrow"></line><line x1="168" y1="76" x2="168" y2="114" class="arcrow" style="stroke:black;"></line><line x1="296" y1="76" x2="296" y2="114" class="arcrow" style="stroke:black;"></line><line x1="424" y1="76" x2="424" y2="114" class="arcrow" style="stroke:black;"></line><line x1="552" y1="76" x2="552" y2="114" class="arcrow"></line><line x1="40" y1="114" x2="40" y2="152" class="arcrow"></line><line x1="168" y1="114" x2="168" y2="152" class="arcrow" style="stroke:black;"></line><line x1="296" y1="114" x2="296" y2="152" class="arcrow" style="stroke:black;"></line><line x1="424" y1="114" x2="424" y2="152" class="arcrow" style="stroke:black;"></line><line x1="552" y1="114" x2="552" y2="152" class="arcrow"></line><line x1="40" y1="152" x2="40" y2="190" class="arcrow"></line><line x1="168" y1="152" x2="168" y2="190" class="arcrow" style="stroke:black;"></line><line x1="296" y1="152" x2="296" y2="190" class="arcrow" style="stroke:black;"></line><line x1="424" y1="152" x2="424" y2="190" class="arcrow" style="stroke:black;"></line><line x1="552" y1="152" x2="552" y2="190" class="arcrow"></line><line x1="40" y1="190" x2="40" y2="228" class="arcrow"></line><line x1="168" y1="190" x2="168" y2="228" class="arcrow" style="stroke:black;"></line><line x1="296" y1="190" x2="296" y2="228" class="arcrow" style="stroke:black;"></line><line x1="424" y1="190" x2="424" y2="228" class="arcrow" style="stroke:black;"></line><line x1="552" y1="190" x2="552" y2="228" class="arcrow"></line><line x1="40" y1="228" x2="40" y2="266" class="arcrow"></line><line x1="168" y1="228" x2="168" y2="266" class="arcrow" style="stroke:black;"></line><line x1="296" y1="228" x2="296" y2="266" class="arcrow" style="stroke:black;"></line><line x1="424" y1="228" x2="424" y2="266" class="arcrow" style="stroke:black;"></line><line x1="552" y1="228" x2="552" y2="266" class="arcrow"></line><line x1="40" y1="266" x2="40" y2="304" class="arcrow"></line><line x1="168" y1="266" x2="168" y2="304" class="arcrow" style="stroke:black;"></line><line x1="296" y1="266" x2="296" y2="304" class="arcrow" style="stroke:black;"></line><line x1="424" y1="266" x2="424" y2="304" class="arcrow" style="stroke:black;"></line><line x1="552" y1="266" x2="552" y2="304" class="arcrow"></line><line x1="40" y1="304" x2="40" y2="342" class="arcrow"></line><line x1="168" y1="304" x2="168" y2="342" class="arcrow" style="stroke:black;"></line><line x1="296" y1="304" x2="296" y2="342" class="arcrow" style="stroke:black;"></line><line x1="424" y1="304" x2="424" y2="342" class="arcrow" style="stroke:black;"></line><line x1="552" y1="304" x2="552" y2="342" class="arcrow"></line><line x1="40" y1="342" x2="40" y2="380" class="arcrow"></line><line x1="168" y1="342" x2="168" y2="380" class="arcrow" style="stroke:black;"></line><line x1="296" y1="342" x2="296" y2="380" class="arcrow" style="stroke:black;"></line><line x1="424" y1="342" x2="424" y2="380" class="arcrow" style="stroke:black;"></line><line x1="552" y1="342" x2="552" y2="380" class="arcrow"></line><line x1="40" y1="380" x2="40" y2="418" class="arcrow"></line><line x1="168" y1="380" x2="168" y2="418" class="arcrow" style="stroke:black;"></line><line x1="296" y1="380" x2="296" y2="418" class="arcrow" style="stroke:black;"></line><line x1="424" y1="380" x2="424" y2="418" class="arcrow" style="stroke:black;"></line><line x1="552" y1="380" x2="552" y2="418" class="arcrow"></line><line x1="40" y1="418" x2="40" y2="456" class="arcrow"></line><line x1="168" y1="418" x2="168" y2="456" class="arcrow" style="stroke:black;"></line><line x1="296" y1="418" x2="296" y2="456" class="arcrow" style="stroke:black;"></line><line x1="424" y1="418" x2="424" y2="456" class="arcrow" style="stroke:black;"></line><line x1="552" y1="418" x2="552" y2="456" class="arcrow"></line><line x1="40" y1="456" x2="40" y2="494" class="arcrow"></line><line x1="168" y1="456" x2="168" y2="494" class="arcrow" style="stroke:black;"></line><line x1="296" y1="456" x2="296" y2="494" class="arcrow" style="stroke:black;"></line><line x1="424" y1="456" x2="424" y2="494" class="arcrow" style="stroke:black;"></line><line x1="552" y1="456" x2="552" y2="494" class="arcrow"></line></g><g id="mscgenjs__svg_sequence"><g><g><rect width="80" height="38" class="entity" style="fill:black;"></rect><g><text x="40" y="22.5" class="entity-text " style="fill:white;"><tspan>Sender</tspan></text></g></g><g><rect width="80" height="38" x="128" class="entity" style="stroke:black;"></rect><g><text x="168" y="22.5" class="entity-text "><tspan>Node 1</tspan></text></g></g><g><rect width="80" height="38" x="256" class="entity" style="stroke:black;"></rect><g><text x="296" y="22.5" class="entity-text "><tspan>Node 2</tspan></text></g></g><g><rect width="80" height="38" x="384" class="entity" style="stroke:black;"></rect><g><text x="424" y="22.5" class="entity-text "><tspan>Node 3</tspan></text></g></g><g><rect width="80" height="38" x="512" class="entity" style="fill:black;"></rect><g><text x="552" y="22.5" class="entity-text " style="fill:white;"><tspan>Receiver</tspan></text></g></g></g><g></g><g><line x1="0" y1="133" x2="592" y2="133" class="comment"></line><g><rect width="46" height="14" x="273" y="125.5" class="label-text-background"></rect><text x="296" y="136.5" class="empty-text comment-row-text "><tspan>Request</tspan></text></g></g><g><line x1="40" y1="171" x2="168" y2="171" class="arc directional signal" style="stroke:black" marker-end="url(#mscgenjs__svgsignal-black)"></line><g><rect width="86" height="14" x="61" y="155.5" class="label-text-background"></rect><text x="104" y="166.5" class="directional-text signal-text "><tspan>OnionRequest0</tspan></text></g></g><g><line x1="168" y1="209" x2="296" y2="209" class="arc directional signal" style="stroke:black" marker-end="url(#mscgenjs__svgsignal-black)"></line><g><rect width="86" height="14" x="189" y="193.5" class="label-text-background"></rect><text x="232" y="204.5" class="directional-text signal-text "><tspan>OnionRequest1</tspan></text></g></g><g><line x1="296" y1="247" x2="424" y2="247" class="arc directional signal" style="stroke:black" marker-end="url(#mscgenjs__svgsignal-black)"></line><g><rect width="86" height="14" x="317" y="231.5" class="label-text-background"></rect><text x="360" y="242.5" class="directional-text signal-text "><tspan>OnionRequest2</tspan></text></g></g><g><line x1="424" y1="285" x2="552" y2="285" class="arc directional signal" style="stroke:black" marker-end="url(#mscgenjs__svgsignal-black)"></line><g><rect width="54" height="14" x="461" y="269.5" class="label-text-background"></rect><text x="488" y="280.5" class="directional-text signal-text "><tspan>(Request)</tspan></text></g></g><g><line x1="0" y1="323" x2="592" y2="323" class="comment"></line><g><rect width="56" height="14" x="268" y="315.5" class="label-text-background"></rect><text x="296" y="326.5" class="empty-text comment-row-text "><tspan>Response</tspan></text></g></g><g><line x1="552" y1="361" x2="424" y2="361" class="arc directional signal" style="stroke:black" marker-end="url(#mscgenjs__svgsignal-u-black)"></line><g><rect width="96" height="14" x="440" y="345.5" class="label-text-background"></rect><text x="488" y="356.5" class="directional-text signal-text "><tspan>OnionResponse3</tspan></text></g></g><g><line x1="424" y1="399" x2="296" y2="399" class="arc directional signal" style="stroke:black" marker-end="url(#mscgenjs__svgsignal-u-black)"></line><g><rect width="96" height="14" x="312" y="383.5" class="label-text-background"></rect><text x="360" y="394.5" class="directional-text signal-text "><tspan>OnionResponse2</tspan></text></g></g><g><line x1="296" y1="437" x2="168" y2="437" class="arc directional signal" style="stroke:black" marker-end="url(#mscgenjs__svgsignal-u-black)"></line><g><rect width="96" height="14" x="184" y="421.5" class="label-text-background"></rect><text x="232" y="432.5" class="directional-text signal-text "><tspan>OnionResponse1</tspan></text></g></g><g><line x1="168" y1="475" x2="40" y2="475" class="arc directional signal" style="stroke:black" marker-end="url(#mscgenjs__svgsignal-u-black)"></line><g><rect width="64" height="14" x="72" y="459.5" class="label-text-background"></rect><text x="104" y="470.5" class="directional-text signal-text "><tspan>(Response)</tspan></text></g></g></g><g id="mscgenjs__svg_notes"></g><g id="mscgenjs__svg_watermark"></g></g></svg>